<?xml version="1.0" encoding="utf-8"?>
<!-- Generator: Adobe Illustrator 24.1.1, SVG Export Plug-In . SVG Version: 6.00 Build 0)  -->
<svg version="1.1" xmlns="http://www.w3.org/2000/svg" xmlns:xlink="http://www.w3.org/1999/xlink" x="0px" y="0px"
	 viewBox="0 0 1920 1080" style="enable-background:new 0 0 1920 1080;" xml:space="preserve">
<style type="text/css">
	.st0{display:none;}
	.st1{display:inline;}
	.st2{fill:#465055;}
	.st3{fill:#B5A865;}
	.st4{fill:#F1FFF1;}
	.st5{fill:#2F5F49;}
</style>
<g id="Fondo" class="st0">
	<g class="st1">
		<rect x="0.5" y="0.5" class="st2" width="1919" height="1079"/>
		<path d="M1919,1v1078H1V1H1919 M1920,0H0v1080h1920V0L1920,0z"/>
	</g>
</g>
<g id="Capa_1">
	<g>
		<circle class="st3" cx="956.5" cy="400.5" r="298.5"/>
	</g>
</g>
<g id="Capa_2">
	<path class="st4" d="M1207.12,503.35L1255,452l-14-15l57-76l-29,5c11.33-19.44,22.86-41.11,34-65c11.17-23.95,20.38-46.78,28-68
		c2.08,13.62,5.46,29.2,11,46c9.4,28.53,21.93,51.26,33,68c-3,7-6,14-9,21l41,29l13-11l4,4l25,55l-10,10l25,85l23,33l-13,14l44,65
		l22,27v38l-36,31h-111l2.59,156l-41.59-0.15L1207.12,503.35z"/>
	<polygon class="st4" points="599,676 815,433 857,484 955.5,377.5 1058,482 1100,428 1302,652 1354,652 1366,904 633,895 633,713 	
		"/>
	<polygon class="st5" points="956,335 728,571.62 752.14,614 956,392.68 	"/>
	<polygon class="st5" points="956,335 1187,570.77 1162.54,613 956,392.48 	"/>
	<polygon class="st5" points="836.02,550.37 839.68,853.96 796.84,860.06 799.71,583.09 	"/>
	<polygon class="st5" points="1080.3,559.13 1078.41,864.2 1120.92,866.59 1116.49,588.8 	"/>
	<g>
		<path class="st5" d="M1106.17,396.87c28.36,29.39,62.62,65.56,97.91,102.95c53.21,56.38,108.75,115.53,149.92,158.37l-26.24,46.8
			l-221.59-244.42V396.87z"/>
		<polygon class="st5" points="1106.17,460.31 1083.82,433.01 1106.17,396.6 		"/>
	</g>
	<path class="st5" d="M328.98,924.81c21.22-4.18,42.62-8.29,64.22-12.32c74.59-13.92,147.81-26.27,219.52-37.19
		c77.14-11.07,244.88-32.29,427.2-30.25c148.28,1.65,300.54,18.84,340.68,23.27c0,0,0,0,0,0c19.44,2.47,37.22,4.92,52.96,7.22
		c0,0,20.41,2.97,40.78,6.24c33.02,5.29,119.24,21.9,233.64,47.49"/>
	<g>
		<polygon class="st5" points="804.07,400.99 556,665.61 582.27,713 804.07,465.5 		"/>
		<polygon class="st5" points="804.07,465.22 826.45,437.58 804.07,400.71 		"/>
	</g>
	<polygon class="st5" points="616,694.3 657,652 656.31,873.39 609.42,881 	"/>
	<polygon class="st5" points="1295,694.12 1254,651.78 1254.69,873.38 1301.58,881 	"/>
	<rect x="917" y="676" class="st5" width="29" height="106"/>
	<rect x="969" y="676" class="st5" width="29" height="106"/>
	<rect x="917" y="628" class="st5" width="29" height="39"/>
	<rect x="969" y="628" class="st5" width="29" height="39"/>
	<rect x="702" y="720.45" class="st5" width="26.14" height="75.55"/>
	<rect x="748.86" y="720.45" class="st5" width="26.14" height="75.55"/>
	<rect x="702" y="679" class="st5" width="26.14" height="33.68"/>
	<rect x="748.86" y="679" class="st5" width="26.14" height="33.68"/>
	<rect x="1144.15" y="720.83" class="st5" width="26.14" height="75.55"/>
	<rect x="1191.01" y="720.83" class="st5" width="26.14" height="75.55"/>
	<rect x="1144.15" y="679.38" class="st5" width="26.14" height="33.68"/>
	<rect x="1191.01" y="679.38" class="st5" width="26.14" height="33.68"/>
	<path class="st5" d="M1191,503l53.8-51.67L1230,441l6.83-8.03L1264,401c7.33-10,14.67-20,22-30c-1.62,1.54-8.39,7.62-19,8
		c-11,0.4-18.37-5.6-20-7c3.72-4.45,7.46-9.06,11.22-13.84c4.16-5.29,8.7-11.23,13.48-17.76c0,0,8.99-12.3,16.3-23.4
		c20.29-30.83,37.39-70.59,43-84c-17.67,42.33-35.33,84.67-53,127l37-13l-67.95,94.83L1269,450l-65,70L1191,503z"/>
	<path class="st5" d="M1331,233c6.01,21.31,15.97,48.31,33,77c11.22,18.9,23.1,34.49,34,47c-7.33,0.33-14.67,0.67-22,1
		c-0.15,0.78-1.42,8.22,4,14c4.73,5.04,10.99,5.02,12,5c2.97-3.38,5.99-7.04,9-11c5.55-7.29,10.16-14.39,14-21
		c4.21,24.19,11.22,43.08,17,56c4.94,11.05,10.58,23.41,22,37c7.67,9.13,15.3,15.66,21,20c-2.24,1.55-6.73,4.21-13,5
		c-8.23,1.04-14.56-1.76-17-3c1.83,7.33,4.7,17.75,9,30c7.56,21.55,15.94,45.42,35,69c6.08,7.52,15.44,17.72,29,28
		c-3.46,1.56-9.37,3.71-17,4c-8.05,0.3-14.39-1.61-18-3c9.3,18.83,24.79,44.67,50,70c18.1,18.19,36.19,31.06,51,40
		c-6.02,0.49-12.36,0.85-19,1c-5.19,0.12-10.19,0.11-15,0c-1.68,4.83-4.08,13.98-2,25c0.92,4.87,2.48,8.9,4,12
		c5.96,4.6,12.95,9.4,21,14c13.54,7.73,26.31,12.72,37,16c-0.13,1.59-0.68,5.91-4,10c-3.33,4.12-7.48,5.55-9,6
		c-4.84,1.45-11.7,2.94-20,3c-8.79,0.06-16.01-1.51-21-3c-0.14,1.38-0.73,5.42-4,9c-3.86,4.23-8.77,4.87-10,5
		c-3.62,2.35-9.01,5.24-16,7c-11.35,2.86-20.94,1.24-26,0c-3-2.33-6-4.67-9-7c-0.51,2.25-1.76,6.22-5,10c-5.53,6.45-12.91,7.72-15,8
		c-0.65,3.81-2.17,9.73-6,16c-5,8.18-11.42,12.8-15,15c-3,24.67-6,49.33-9,74l-39.56-15H1379l-13-245c35.42,22.6,60.24,40.3,79,55
		c8.39,6.58,22.4,17.9,43,20c11.59,1.18,21.42-0.95,28-3c1.73-0.37,10.47-2.45,16-11c6.17-9.53,3.43-19.52,3-21
		c-3.99,0.38-10.54,0.48-18-2c-11.61-3.86-18.37-11.61-21-15c2.89-0.37,8.93-1.55,15-6c5.81-4.26,8.73-9.39,10-12
		c-9.59-9.07-19.86-19.99-30-33c-17.99-23.08-29.97-45.55-38-64c4.89,6.15,11.43,9.44,17,8c1.13-0.29,2.52-0.86,4-2
		c-6.89-13.51-13.7-28.52-20-45c-12.33-32.28-19.63-62.26-24-88c0.15,0.33,3.08,6.53,9,7c2.15,0.17,3.92-0.48,5-1
		c-1.36-2.59-2.7-5.25-4-8c-7.94-16.77-12.92-33.07-16-48c-6.2,9.58-13.78,20.11-23,31c-9.3,10.98-18.51,20.26-27,28c6-1,12-2,18-3
		c-5.07,13.06-11.3,27.2-19,42c-10.45,20.1-21.5,37.41-32,52c2.47,0.46,7.8,1.11,14-1c5.65-1.92,9.27-5.21,11-7
		c-2.54,10.17-6.06,21.67-11,34c-5.09,12.69-10.66,23.7-16,33c1.19,0.55,5.14,2.21,10,1c3.66-0.91,6-2.99,7-4
		c-0.47,4.06-1.98,12.48-8,21c-5.61,7.95-12.41,12.12-16,14c3.92,4.81,9.18,10.43,16,16c6.48,5.29,12.72,9.17,18,12
		c-3.25-0.79-11.46-2.33-21,1c-8.62,3.01-13.82,8.43-16,11c-33-40.33-66-80.67-99-121c18.23-5.55,40.8-14.2,65-28
		c21.51-12.26,38.76-25.41,52-37c-3.07,1.71-7.83,3.89-14,5c-6.74,1.21-12.4,0.65-16,0c17.54-21.4,30.42-37.75,36-45
		c1.94-2.53,5.5-7.19,9-14c1.92-3.73,3.21-6.91,4-9c-2.31,0.67-4.64,1.34-7,2c-5.07,1.42-10.07,2.75-15,4
		c4.71-1.37,16.45-5.49,25-17c3.8-5.12,5.85-10.18,7-14c-4.13-5.22-8.87-12.2-13-21c-5.44-11.6-7.86-22.2-9-30c4,0,8,0,12,0
		C1354.33,308.33,1342.67,270.67,1331,233z"/>
</g>
</svg>
